<svg width="24" height="25" viewBox="0 0 24 25" fill="none" xmlns="http://www.w3.org/2000/svg">
<path d="M12.625 11.25V9.37501L9.5 12.5L12.625 15.625V13.75H18.291L12.286 19.557L5.026 12.5L12.285 5.44201L16.131 9.18201C16.366 9.41001 16.684 9.53801 17.017 9.53801C17.35 9.53801 17.668 9.41001 17.904 9.18201C18.139 8.95201 18.271 8.64201 18.271 8.31901C18.271 7.99601 18.139 7.68601 17.904 7.45701L13.172 2.85701C12.9341 2.627 12.6159 2.49891 12.285 2.50001C11.9545 2.49917 11.6366 2.62724 11.399 2.85701L2.368 11.638C2.25184 11.7498 2.15939 11.8838 2.09617 12.0321C2.03294 12.1803 2.00023 12.3398 2 12.501C2 12.823 2.132 13.133 2.367 13.361L11.399 22.143C11.634 22.372 11.953 22.5 12.285 22.5C12.617 22.5 12.937 22.372 13.172 22.143L21.436 14.107C21.779 13.782 22 13.363 22 12.873C22 12.383 21.78 11.963 21.426 11.628C21.192 11.406 20.877 11.25 20.55 11.25H12.625Z" fill="#ECF0F1"/>
</svg>
