<svg width="43" height="32" viewBox="0 0 43 32" fill="none" xmlns="http://www.w3.org/2000/svg">
<g clip-path="url(#clip0_63_112)">
<path d="M9.84138 31.8425V15.4429L4.80877 10.7899L0.295898 8.20789V28.9484C0.295898 30.5497 1.57969 31.8425 3.15961 31.8425H9.84138Z" fill="#4285F4"/>
<path d="M32.7504 31.8425H39.4322C41.0169 31.8425 42.2959 30.545 42.2959 28.9484V8.20813L37.1844 11.1656L32.7504 15.4429V31.8425Z" fill="#34A853"/>
<path d="M9.84138 15.4429L9.15659 9.03511L9.84138 2.90222L21.2959 11.5843L32.7504 2.90222L33.5164 8.704L32.7504 15.4429L21.2959 24.125L9.84138 15.4429Z" fill="#EA4335"/>
<path d="M32.7504 2.90217V15.4428L42.2959 8.20787V4.34913C42.2959 0.77027 38.2534 -1.26994 35.4233 0.876384L32.7504 2.90217Z" fill="#FBBC04"/>
<path d="M0.295898 8.20794L4.68605 11.5356L9.84138 15.4429V2.90224L7.16848 0.87646C4.33348 -1.27003 0.295898 0.770346 0.295898 4.34904V8.20794Z" fill="#C5221F"/>
</g>
<defs>
<clipPath id="clip0_63_112">
<rect width="42" height="32" fill="white" transform="translate(0.295898)"/>
</clipPath>
</defs>
</svg>
