<svg width="43" height="42" viewBox="0 0 43 42" fill="none" xmlns="http://www.w3.org/2000/svg">
<path d="M38.3584 0.984405H4.2334C3.45913 0.976525 2.71335 1.27612 2.15971 1.81746C1.60607 2.35879 1.28979 3.09765 1.28027 3.8719V38.1347C1.29151 38.9078 1.60855 39.645 2.162 40.1849C2.71545 40.7248 3.46025 41.0235 4.2334 41.0157H38.3584C39.1327 41.0218 39.878 40.7212 40.4313 40.1795C40.9847 39.6378 41.3011 38.8992 41.3115 38.1249V3.86206C41.2977 3.09008 40.9798 2.35474 40.4268 1.81589C39.8738 1.27704 39.1305 0.978229 38.3584 0.984405Z" fill="#0076B2"/>
<path d="M7.2062 15.9895H13.1485V35.1093H7.2062V15.9895ZM10.179 6.47388C10.8606 6.47388 11.5268 6.67602 12.0935 7.05475C12.6601 7.43347 13.1017 7.97174 13.3624 8.60148C13.6231 9.23122 13.6911 9.92413 13.5579 10.5925C13.4247 11.261 13.0962 11.8748 12.6141 12.3566C12.1319 12.8383 11.5177 13.1661 10.8492 13.2987C10.1806 13.4313 9.48777 13.3626 8.85828 13.1013C8.22879 12.84 7.69093 12.3979 7.31275 11.8309C6.93457 11.2639 6.73306 10.5975 6.73371 9.91591C6.73457 9.00272 7.09795 8.12724 7.74397 7.48183C8.39 6.83641 9.26583 6.47388 10.179 6.47388ZM16.876 15.9895H22.5723V18.6145H22.651C23.4451 17.1117 25.3811 15.5268 28.2718 15.5268C34.2896 15.5137 35.4053 19.4742 35.4053 24.6093V35.1093H29.4629V25.807C29.4629 23.5922 29.4235 20.7408 26.3753 20.7408C23.327 20.7408 22.8085 23.1558 22.8085 25.6626V35.1093H16.876V15.9895Z" fill="white"/>
</svg>
