<svg width="42" height="42" viewBox="0 0 42 42" fill="none" xmlns="http://www.w3.org/2000/svg">
<path d="M32.1562 0H9.84375C4.4072 0 0 4.4072 0 9.84375V32.1562C0 37.5928 4.4072 42 9.84375 42H32.1562C37.5928 42 42 37.5928 42 32.1562V9.84375C42 4.4072 37.5928 0 32.1562 0Z" fill="url(#paint0_radial_63_108)"/>
<path d="M32.1562 0H9.84375C4.4072 0 0 4.4072 0 9.84375V32.1562C0 37.5928 4.4072 42 9.84375 42H32.1562C37.5928 42 42 37.5928 42 32.1562V9.84375C42 4.4072 37.5928 0 32.1562 0Z" fill="url(#paint1_radial_63_108)"/>
<path d="M21.0014 4.59424C16.5458 4.59424 15.9865 4.61376 14.2366 4.69333C12.49 4.77339 11.2978 5.04984 10.2547 5.45557C9.17546 5.87458 8.26016 6.43519 7.3483 7.34737C6.43562 8.2594 5.87502 9.1747 5.45469 10.2534C5.04781 11.2969 4.77104 12.4896 4.69245 14.2354C4.6142 15.9854 4.59369 16.5449 4.59369 21.0007C4.59369 25.4565 4.61338 26.0139 4.69278 27.7638C4.77317 29.5104 5.04962 30.7027 5.45502 31.7458C5.87436 32.825 6.43496 33.7403 7.34715 34.6522C8.25885 35.5648 9.17415 36.1268 10.2525 36.5458C11.2965 36.9515 12.4889 37.2279 14.2351 37.308C15.9852 37.3876 16.544 37.4071 20.9994 37.4071C25.4555 37.4071 26.013 37.3876 27.7629 37.308C29.5095 37.2279 30.7031 36.9515 31.747 36.5458C32.8257 36.1268 33.7397 35.5648 34.6513 34.6522C35.5639 33.7403 36.1244 32.825 36.5449 31.7463C36.9481 30.7027 37.2251 29.5101 37.3071 27.7642C37.3857 26.0143 37.4062 25.4565 37.4062 21.0007C37.4062 16.5449 37.3857 15.9858 37.3071 14.2357C37.2251 12.4891 36.9481 11.297 36.5449 10.2539C36.1244 9.17471 35.5639 8.2594 34.6513 7.34737C33.7387 6.43486 32.8261 5.87426 31.746 5.45573C30.7001 5.04984 29.5072 4.77323 27.7606 4.69333C26.0106 4.61376 25.4534 4.59424 20.9963 4.59424H21.0014ZM19.5296 7.55081C19.9665 7.55016 20.4539 7.55081 21.0014 7.55081C25.382 7.55081 25.9011 7.56656 27.631 7.64515C29.2306 7.71832 30.0988 7.98558 30.6772 8.21018C31.4428 8.50746 31.9887 8.86299 32.5626 9.43737C33.1368 10.0116 33.4922 10.5584 33.7903 11.3241C34.0149 11.9016 34.2824 12.7698 34.3553 14.3694C34.4339 16.099 34.4509 16.6184 34.4509 20.9969C34.4509 25.3754 34.4339 25.895 34.3553 27.6244C34.2821 29.224 34.0149 30.0922 33.7903 30.6699C33.493 31.4356 33.1368 31.9807 32.5626 32.5546C31.9884 33.1288 31.4432 33.4842 30.6772 33.7816C30.0995 34.0072 29.2306 34.2738 27.631 34.347C25.9015 34.4256 25.382 34.4427 21.0014 34.4427C16.6206 34.4427 16.1014 34.4256 14.372 34.347C12.7724 34.2732 11.9041 34.0059 11.3253 33.7813C10.5598 33.4839 10.0128 33.1285 9.43862 32.5543C8.8644 31.9801 8.50904 31.4346 8.21094 30.6686C7.98634 30.0909 7.71875 29.2227 7.64591 27.6231C7.56732 25.8935 7.55157 25.3741 7.55157 20.9928C7.55157 16.6115 7.56732 16.0949 7.64591 14.3653C7.71908 12.7657 7.98634 11.8975 8.21094 11.3192C8.50838 10.5535 8.8644 10.0067 9.43878 9.43245C10.0132 8.85823 10.5598 8.5027 11.3255 8.20477C11.9038 7.97918 12.7724 7.71258 14.372 7.63908C15.8855 7.57066 16.472 7.55016 19.5296 7.54671V7.55081ZM29.7591 10.2749C28.6722 10.2749 27.7903 11.1559 27.7903 12.243C27.7903 13.3299 28.6722 14.2118 29.7591 14.2118C30.846 14.2118 31.7278 13.3299 31.7278 12.243C31.7278 11.1561 30.846 10.2743 29.7591 10.2743V10.2749ZM21.0014 12.5752C16.3486 12.5752 12.5761 16.3477 12.5761 21.0007C12.5761 25.6537 16.3486 29.4243 21.0014 29.4243C25.6544 29.4243 29.4255 25.6537 29.4255 21.0007C29.4255 16.3479 25.6541 12.5752 21.0011 12.5752H21.0014ZM21.0014 15.5318C24.0216 15.5318 26.4703 17.9801 26.4703 21.0007C26.4703 24.0209 24.0216 26.4695 21.0014 26.4695C17.9812 26.4695 15.5327 24.0209 15.5327 21.0007C15.5327 17.9801 17.981 15.5318 21.0014 15.5318Z" fill="white"/>
<defs>
<radialGradient id="paint0_radial_63_108" cx="0" cy="0" r="1" gradientUnits="userSpaceOnUse" gradientTransform="translate(11.1562 45.2348) rotate(-90) scale(41.6251 38.7146)">
<stop stop-color="#FFDD55"/>
<stop offset="0.1" stop-color="#FFDD55"/>
<stop offset="0.5" stop-color="#FF543E"/>
<stop offset="1" stop-color="#C837AB"/>
</radialGradient>
<radialGradient id="paint1_radial_63_108" cx="0" cy="0" r="1" gradientUnits="userSpaceOnUse" gradientTransform="translate(-7.03516 3.02548) rotate(78.681) scale(18.6067 76.6972)">
<stop stop-color="#3771C8"/>
<stop offset="0.128" stop-color="#3771C8"/>
<stop offset="1" stop-color="#6600FF" stop-opacity="0"/>
</radialGradient>
</defs>
</svg>
